<svg xmlns="http://www.w3.org/2000/svg" xmlns:xlink="http://www.w3.org/1999/xlink" viewBox="2021 346 254 252"><defs><style>.a{fill:#1d1e1e;}.a,.b,.d,.e{opacity:0.421;}.b{fill:#161616;}.c{opacity:0.673;}.d{fill:#101010;}.f{opacity:0.701;}.g{filter:url(#m);}.h{filter:url(#k);}.i{filter:url(#i);}.j{filter:url(#g);}.k{filter:url(#e);}.l{filter:url(#c);}.m{filter:url(#a);}</style><filter id="a" x="2179" y="502" width="96" height="96" filterUnits="userSpaceOnUse"><feOffset dy="3" input="SourceAlpha"/><feGaussianBlur stdDeviation="3" result="b"/><feFlood flood-opacity="0.161"/><feComposite operator="in" in2="b"/><feComposite in="SourceGraphic"/></filter><filter id="c" x="2179" y="346" width="96" height="96" filterUnits="userSpaceOnUse"><feOffset dy="3" input="SourceAlpha"/><feGaussianBlur stdDeviation="3" result="d"/><feFlood flood-opacity="0.161"/><feComposite operator="in" in2="d"/><feComposite in="SourceGraphic"/></filter><filter id="e" x="2100" y="502" width="96" height="96" filterUnits="userSpaceOnUse"><feOffset dy="3" input="SourceAlpha"/><feGaussianBlur stdDeviation="3" result="f"/><feFlood flood-opacity="0.161"/><feComposite operator="in" in2="f"/><feComposite in="SourceGraphic"/></filter><filter id="g" x="2100" y="346" width="96" height="96" filterUnits="userSpaceOnUse"><feOffset dy="3" input="SourceAlpha"/><feGaussianBlur stdDeviation="3" result="h"/><feFlood flood-opacity="0.161"/><feComposite operator="in" in2="h"/><feComposite in="SourceGraphic"/></filter><filter id="i" x="2021" y="502" width="96" height="96" filterUnits="userSpaceOnUse"><feOffset dy="3" input="SourceAlpha"/><feGaussianBlur stdDeviation="3" result="j"/><feFlood flood-opacity="0.161"/><feComposite operator="in" in2="j"/><feComposite in="SourceGraphic"/></filter><filter id="k" x="2021" y="424" width="96" height="96" filterUnits="userSpaceOnUse"><feOffset dy="3" input="SourceAlpha"/><feGaussianBlur stdDeviation="3" result="l"/><feFlood flood-opacity="0.161"/><feComposite operator="in" in2="l"/><feComposite in="SourceGraphic"/></filter><filter id="m" x="2179" y="426" width="96" height="96" filterUnits="userSpaceOnUse"><feOffset dy="3" input="SourceAlpha"/><feGaussianBlur stdDeviation="3" result="n"/><feFlood flood-opacity="0.161"/><feComposite operator="in" in2="n"/><feComposite in="SourceGraphic"/></filter></defs><g transform="translate(986)"><g class="m" transform="matrix(1, 0, 0, 1, -986, 0)"><rect class="a" width="78" height="78" transform="translate(2188 508)"/></g><g class="l" transform="matrix(1, 0, 0, 1, -986, 0)"><rect class="b" width="78" height="78" transform="translate(2188 352)"/></g><g class="k" transform="matrix(1, 0, 0, 1, -986, 0)"><rect class="c" width="78" height="78" transform="translate(2109 508)"/></g><g class="j" transform="matrix(1, 0, 0, 1, -986, 0)"><rect class="d" width="78" height="78" transform="translate(2109 352)"/></g><g class="i" transform="matrix(1, 0, 0, 1, -986, 0)"><rect class="e" width="78" height="78" transform="translate(2030 508)"/></g><g class="h" transform="matrix(1, 0, 0, 1, -986, 0)"><rect class="e" width="78" height="78" transform="translate(2030 430)"/></g><g class="g" transform="matrix(1, 0, 0, 1, -986, 0)"><rect class="f" width="78" height="78" transform="translate(2188 432)"/></g></g></svg>